<svg xmlns="http://www.w3.org/2000/svg" width="23.62" height="23.562" viewBox="0 0 23.62 23.562">
  <defs>
    <style>
      .cls-1 {
        fill: #1e2027;
        fill-rule: evenodd;
      }
    </style>
  </defs>
  <path class="cls-1" d="M1288.21,150.1c-3.37-1.7-6.8-3.428-10.12-5.1l-1.68-.844c0.6-.3,1.18-0.593,1.76-0.886l2.51-1.259c2.46-1.236,5-2.514,7.5-3.774a0.508,0.508,0,0,1,.05-0.02v0c3.31,1.671,6.68,3.365,9.94,5l1.86,0.935-0.92.463c-1.27.637-2.52,1.266-3.77,1.9-2.37,1.189-4.73,2.378-7.1,3.568A0.053,0.053,0,0,1,1288.21,150.1Zm0,5.838c-3.26-1.648-6.59-3.319-9.81-4.936l-1.99-1c0.27-.134.53-0.265,0.79-0.4,0.22-.113.45-0.226,0.68-0.338,0.52-.261,1.06-0.53,1.59-0.806a0.1,0.1,0,0,0,.03-0.016,0.25,0.25,0,0,1,.06.025c1.12,0.564,2.25,1.134,3.35,1.685,1.51,0.755,3.06,1.536,4.59,2.31a1.555,1.555,0,0,0,.72.189,1.653,1.653,0,0,0,.74-0.19c1.42-.721,2.87-1.449,4.27-2.154,1.21-.607,2.46-1.235,3.69-1.855a0.052,0.052,0,0,0,.02-0.011,0.186,0.186,0,0,1,.02.01c0.89,0.455,1.8.911,2.68,1.351l0.39,0.195-1.57.788-1.21.61c-2.96,1.485-6.01,3.021-9.02,4.537,0,0-.01,0-0.01.006S1288.22,155.945,1288.21,155.943Zm0.01,5.845c-3.24-1.631-6.52-3.285-9.71-4.884l-2.1-1.056,0.06-.029c1-.5,2.02-1.013,3.03-1.522,0.01,0,1.57.787,1.57,0.787,2.1,1.052,4.28,2.14,6.41,3.221a1.621,1.621,0,0,0,.75.2,1.655,1.655,0,0,0,.74-0.191c1.48-.752,2.99-1.511,4.45-2.245,1.15-.577,2.34-1.174,3.5-1.764a0.063,0.063,0,0,0,.02-0.009,0.1,0.1,0,0,1,.02.011c1,0.506,1.98,1,3.01,1.516l0.06,0.029c-0.37.188-.73,0.372-1.1,0.555l-2.82,1.417c-2.58,1.3-5.24,2.635-7.86,3.955A0.112,0.112,0,0,0,1288.22,161.788Z" transform="translate(-1276.41 -138.219)"/>
</svg>
