<svg xmlns="http://www.w3.org/2000/svg" width="23.906" height="24" viewBox="0 0 23.906 24">
  <defs>
    <style>
      .cls-1 {
        fill: #1e2027;
        fill-rule: evenodd;
      }
    </style>
  </defs>
  <path class="cls-1" d="M760.754,159.6A10.795,10.795,0,1,1,771.5,148.8,10.783,10.783,0,0,1,760.754,159.6Zm0-19.19a8.4,8.4,0,1,0,8.358,8.4A8.387,8.387,0,0,0,760.754,140.405Zm11.94,21.589a1.189,1.189,0,0,1-.844-0.352l-5.194-5.217a1.2,1.2,0,0,1,0-1.7,1.191,1.191,0,0,1,1.689,0l5.194,5.217a1.2,1.2,0,0,1,0,1.7A1.191,1.191,0,0,1,772.694,161.994Z" transform="translate(-750 -138)"/>
</svg>
