<svg xmlns="http://www.w3.org/2000/svg" xmlns:xlink="http://www.w3.org/1999/xlink" width="27.47" height="27.906" viewBox="0 0 27.47 27.906">
  <defs>
    <style>
      .cls-1 {
        fill: #f0f0da;
        fill-rule: evenodd;
        opacity: 0.85;
        filter: url(#filter);
      }
    </style>
    <filter id="filter" x="1255.53" y="400.094" width="27.47" height="27.906" filterUnits="userSpaceOnUse">
      <feOffset result="offset" dx="0.707" dy="0.707" in="SourceAlpha"/>
      <feGaussianBlur result="blur" stdDeviation="1"/>
      <feFlood result="flood" flood-opacity="0.3"/>
      <feComposite result="composite" operator="in" in2="blur"/>
      <feBlend result="blend" in="SourceGraphic"/>
    </filter>
  </defs>
  <path id="Shape_3_copy_2" data-name="Shape 3 copy 2" class="cls-1" d="M1260.33,408.378c1.18,0,2.35-.014,3.52.008a0.515,0.515,0,0,0,.6-0.428c0.71-2.311,1.45-4.614,2.19-6.919a1.109,1.109,0,0,1,1.73-.743,1.2,1.2,0,0,1,.49.759c0.72,2.251,1.43,4.5,2.15,6.751,0.23,0.717.09,0.581,0.78,0.583,2.34,0.006,4.69,0,7.04,0a1.136,1.136,0,0,1,1.07,1.62,1.177,1.177,0,0,1-.43.491c-1.49,1.109-3,2.192-4.47,3.337-0.44.347-.96,0.559-1.38,0.936a0.5,0.5,0,0,0-.2.623c0.57,1.714,1.1,3.44,1.65,5.163,0.21,0.674.43,1.346,0.63,2.026a1.115,1.115,0,0,1-1.74,1.238c-1.43-1.054-2.84-2.12-4.26-3.18-0.55-.406-1.1-0.8-1.64-1.218a0.42,0.42,0,0,0-.6.014c-1.96,1.462-3.91,2.915-5.88,4.367a1.14,1.14,0,0,1-1.3.113,1.193,1.193,0,0,1-.46-1.44c0.74-2.318,1.47-4.637,2.23-6.948a0.558,0.558,0,0,0-.24-0.741c-1.95-1.441-3.9-2.9-5.85-4.352a1.119,1.119,0,0,1-.42-1.176,1.054,1.054,0,0,1,.78-0.832,1.769,1.769,0,0,1,.53-0.051C1258.01,408.376,1259.17,408.378,1260.33,408.378Z" transform="translate(-1255.53 -400.094)"/>
</svg>
